<svg xmlns="http://www.w3.org/2000/svg" viewBox="0 0 76.248 74.664">
  <defs>
    <linearGradient id="g" gradientUnits="objectBoundingBox" x1="0" y1="0" x2="1" y2="1">
      <stop stop-color="#254ba5" offset="0.194"/>
      <stop stop-color="#18a2da" offset="1"/>
    </linearGradient>
  </defs>
  <path transform="matrix(5.26891600327357 0 0 5.26891600327356 26.5166127520274 12.4113838948293)" fill="url(#g)" fill-rule="evenodd" d="M0.634686 0L3.51844 0.039375L6.15844 3.48188L6.37594 4.08188L8.53594 4.22156L8.78625 4.44938L8.89875 4.75594L8.73281 5.1075L8.45156 5.29875L5.66719 5.30156L5.23125 4.43531L4.97531 3.97125L3.13594 5.28188L4.58437 7.335L4.71375 7.69781L4.5 8.08875L3.98531 8.28281L0.433125 9.15188L0.1125 8.95219L0 8.63438L0.12375 8.10844L0.542812 7.88906L2.71687 7.44188L0.759375 5.30438L0.692814 4.92563L0.854064 4.51313L3.39281 2.06063L3.41906 1.82063L2.91281 1.13438L0.685314 1.11938L0.479064 0.841877L0.381564 0.444377L0.565314 0.178127L0.634686 0"/>
  <ellipse transform="matrix(5.26891600327357 0 0 5.26891600327356 56.857665652664 14.3392154471768)" rx="1.2" ry="1.14" cx="1.2" cy="1.14" fill="url(#g)"/>
  <rect transform="matrix(5.26891600327357 0 0 5.26891600327356 15.0784547457969 23.5219481059814)" fill="url(#g)" width="3.45281100858425" height="0.720000000000002"/>
  <rect transform="matrix(5.26891600327357 0 0 5.26891600327356 8.51368517054243 30.2793065254676)" fill="url(#g)" width="3.45281100858425" height="0.720000000000002"/>
  <rect transform="matrix(5.26891600327357 0 0 5.26891600327356 1.07952451591672 37.4910916620934)" fill="url(#g)" width="3.45281100858425" height="0.720000000000002"/>
  <path transform="matrix(5.26891600327357 0 0 5.26891600327356 6.31558203082221 39.6497642904804)" fill="url(#g)" fill-rule="evenodd" d="M3.7575 0L3.87 0.38625L4.0875 0.7275L4.4925 1.08375L3.2775 2.14875L1.86375 3.25875L0.63375 4.11375L0.35625 4.08375L0.10875 3.9225L0 3.60375L0.1275 3.21L1.87875 1.71L3.2775 0.435L3.7575 0"/>
</svg>
