<?xml version="1.0" standalone="no"?>
<!DOCTYPE svg PUBLIC "-//W3C//DTD SVG 20010904//EN" "http://www.w3.org/TR/2001/REC-SVG-20010904/DTD/svg10.dtd">
<!-- Created using Krita: https://krita.org -->
<svg xmlns="http://www.w3.org/2000/svg" 
    xmlns:xlink="http://www.w3.org/1999/xlink"
    xmlns:krita="http://krita.org/namespaces/svg/krita"
    xmlns:sodipodi="http://sodipodi.sourceforge.net/DTD/sodipodi-0.dtd"
    width="76.248pt"
    height="74.664pt"
    viewBox="0 0 76.248 74.664">
<defs/>
<path id="shape2" transform="matrix(3.9631160206498 0 0 3.9631160206498 30.3072277971928 25.3628623038909)" fill="#ffffff" fill-rule="evenodd" stroke-opacity="0" stroke="#000000" stroke-width="0" stroke-linecap="square" stroke-linejoin="bevel" d="M0.634686 0L3.51844 0.039375L6.15844 3.48188L6.37594 4.08188L8.53594 4.22156L8.78625 4.44938L8.89875 4.75594L8.73281 5.1075L8.45156 5.29875L5.66719 5.30156L5.23125 4.43531L4.97531 3.97125L3.13594 5.28188L4.58437 7.335L4.71375 7.69781L4.5 8.08875L3.98531 8.28281L0.433125 9.15188L0.1125 8.95219L0 8.63438L0.12375 8.10844L0.542812 7.88906L2.71687 7.44188L0.759375 5.30438L0.692814 4.92563L0.854064 4.51313L3.39281 2.06063L3.41906 1.82063L2.91281 1.13438L0.685314 1.11938L0.479064 0.841877L0.381564 0.444377L0.565314 0.178127L0.634686 0" sodipodi:nodetypes="cccccccccccccccccccccccccccccccccc"/><ellipse id="shape3" transform="matrix(3.9631160206498 0 0 3.9631160206498 53.1288314741517 26.8129177053199)" rx="1.2" ry="1.14" cx="1.2" cy="1.14" fill="#ffffff" fill-rule="evenodd" stroke="#017368" stroke-width="0.0012" stroke-linecap="square" stroke-linejoin="bevel"/><rect id="shape4" transform="matrix(3.9631160206498 0 0 3.9631160206498 21.7037983226952 33.7198858351671)" fill="#ffffff" fill-rule="evenodd" stroke-opacity="0" stroke="#000000" stroke-width="0" stroke-linecap="square" stroke-linejoin="bevel" width="3.45281100858425" height="0.720000000000002"/><rect id="shape01" transform="matrix(3.9631160206498 0 0 3.9631160206498 16.7659812348158 38.8025623084493)" fill="#ffffff" fill-rule="evenodd" stroke-opacity="0" stroke="#000000" stroke-width="0" stroke-linecap="square" stroke-linejoin="bevel" width="3.45281100858425" height="0.720000000000002"/><rect id="shape02" transform="matrix(3.9631160206498 0 0 3.9631160206498 11.1742350061557 44.2270445349051)" fill="#ffffff" fill-rule="evenodd" stroke-opacity="0" stroke="#000000" stroke-width="0" stroke-linecap="square" stroke-linejoin="bevel" width="3.45281100858425" height="0.720000000000002"/><path id="shape5" transform="matrix(3.9631160206498 0 0 3.9631160206498 15.1126358858572 45.8507314700514)" fill="#ffffff" fill-rule="evenodd" stroke-opacity="0" stroke="#000000" stroke-width="0" stroke-linecap="square" stroke-linejoin="bevel" d="M3.7575 0L3.87 0.38625L4.0875 0.7275L4.4925 1.08375L3.2775 2.14875L1.86375 3.25875L0.63375 4.11375L0.35625 4.08375L0.10875 3.9225L0 3.60375L0.1275 3.21L1.87875 1.71L3.2775 0.435L3.7575 0" sodipodi:nodetypes="cccccccccccccc"/>
</svg>
